<svg width="438.533" height="438.533" xmlns="http://www.w3.org/2000/svg">

 <g>
  <title>background</title>
  <rect fill="none" id="canvas_background" height="402" width="582" y="-1" x="-1"/>
 </g>
 <g>
  <title>Layer 1</title>
  <ellipse ry="179" rx="167.5" id="svg_19" cy="222.266502" cx="219.26651" stroke-width="1.5" stroke="#000" fill="#ffffff"/>
  <g id="svg_1">
   <path id="svg_2" fill="#fca644" d="m409.133,109.203c-19.608,-33.592 -46.205,-60.189 -79.798,-79.796c-33.599,-19.606 -70.277,-29.407 -110.062,-29.407c-39.781,0 -76.47,9.801 -110.063,29.407c-33.595,19.604 -60.192,46.201 -79.8,79.796c-19.609,33.597 -29.41,70.286 -29.41,110.064c0,39.78 9.804,76.463 29.407,110.062c19.607,33.592 46.204,60.189 79.799,79.798c33.597,19.605 70.283,29.407 110.063,29.407s76.47,-9.802 110.065,-29.407c33.593,-19.602 60.189,-46.206 79.795,-79.798c19.603,-33.596 29.403,-70.284 29.403,-110.062c0.001,-39.782 -9.8,-76.472 -29.399,-110.064zm-47.684,122.628l-25.981,25.981c-3.613,3.613 -7.901,5.42 -12.847,5.42c-4.948,0 -9.229,-1.807 -12.847,-5.42l-53.954,-53.961l0,143.32c0,4.948 -1.813,9.232 -5.428,12.847c-3.613,3.62 -7.898,5.427 -12.847,5.427l-36.547,0c-4.948,0 -9.231,-1.807 -12.847,-5.427c-3.617,-3.614 -5.426,-7.898 -5.426,-12.847l0,-143.32l-53.959,53.961c-3.431,3.425 -7.708,5.133 -12.85,5.133c-5.14,0 -9.423,-1.708 -12.85,-5.133l-25.981,-25.981c-3.422,-3.429 -5.137,-7.714 -5.137,-12.852c0,-5.137 1.709,-9.419 5.137,-12.847l103.356,-103.353l25.981,-25.981c3.427,-3.425 7.71,-5.14 12.847,-5.14c5.142,0 9.423,1.715 12.849,5.14l25.98,25.981l103.35,103.353c3.432,3.427 5.14,7.71 5.14,12.847c0.001,5.138 -1.707,9.423 -5.139,12.852z"/>
  </g>
  <g id="svg_3"/>
  <g id="svg_4"/>
  <g id="svg_5"/>
  <g id="svg_6"/>
  <g id="svg_7"/>
  <g id="svg_8"/>
  <g id="svg_9"/>
  <g id="svg_10"/>
  <g id="svg_11"/>
  <g id="svg_12"/>
  <g id="svg_13"/>
  <g id="svg_14"/>
  <g id="svg_15"/>
  <g id="svg_16"/>
  <g id="svg_17"/>
 </g>
</svg>