<?xml version="1.0" encoding="iso-8859-1"?>
<!-- Generator: Adobe Illustrator 19.0.0, SVG Export Plug-In . SVG Version: 6.00 Build 0)  -->
<svg version="1.1" id="Layer_1" xmlns="http://www.w3.org/2000/svg" xmlns:xlink="http://www.w3.org/1999/xlink" x="0px" y="0px"
	 viewBox="0 0 511.844 511.844" style="enable-background:new 0 0 511.844 511.844;" xml:space="preserve">
<path style="fill:#965353;" d="M254.942,0c-5.889,0-10.66,4.772-10.66,10.661v65.823h21.321V10.661
	C265.603,4.773,260.83,0,254.942,0z"/>
<path style="fill:#DD9B31;" d="M308.254,458.517c0,29.46-23.868,53.327-53.312,53.327c-29.443,0-53.319-23.867-53.319-53.327
	c0-29.444,23.876-53.312,53.319-53.312C284.386,405.205,308.254,429.072,308.254,458.517z"/>
<path style="fill:#E8A838;" d="M350.912,415.873c0-23.555-19.104-42.658-42.658-42.658H201.622
	c-23.556,0-42.651,19.104-42.651,42.658l0,0c0,23.556,19.096,42.644,42.651,42.644h106.632
	C331.809,458.517,350.912,439.429,350.912,415.873L350.912,415.873z"/>
<path style="fill:#F5BA45;" d="M393.571,351.893c0-23.555-19.104-42.658-42.659-42.658H158.971c-23.555,0-42.65,19.104-42.65,42.658
	l0,0c0,23.556,19.096,42.644,42.65,42.644h191.941C374.467,394.536,393.571,375.448,393.571,351.893L393.571,351.893z"/>
<path style="fill:#DD9B31;" d="M201.622,117.292c0-29.443,23.876-53.312,53.319-53.312c29.444,0,53.312,23.868,53.312,53.312
	s-23.868,53.32-53.312,53.32C225.498,170.612,201.622,146.736,201.622,117.292z"/>
<path style="fill:#E8A838;" d="M158.971,159.951c0,23.556,19.096,42.651,42.651,42.651h106.632
	c23.555,0,42.658-19.096,42.658-42.651l0,0c0-23.563-19.104-42.659-42.658-42.659H201.622
	C178.067,117.292,158.971,136.388,158.971,159.951L158.971,159.951z"/>
<path style="fill:#F5BA45;" d="M116.32,223.932c0,23.556,19.096,42.651,42.65,42.651h191.942c23.555,0,42.659-19.096,42.659-42.651
	l0,0c0-23.563-19.104-42.659-42.659-42.659H158.971C135.416,181.273,116.32,200.368,116.32,223.932L116.32,223.932z"/>
<path style="fill:#FECD57;" d="M438.183,287.912c0-23.562-19.088-42.659-42.644-42.659H116.32
	c-23.556,0-42.659,19.097-42.659,42.659l0,0c0,23.556,19.104,42.644,42.659,42.644h279.219
	C419.095,330.556,438.183,311.468,438.183,287.912L438.183,287.912z"/>
<path style="fill:#424953;" d="M276.264,287.912c0,11.777-9.545,21.322-21.322,21.322c-11.777,0-21.329-9.545-21.329-21.322
	s9.552-21.329,21.329-21.329C266.719,266.583,276.264,276.135,276.264,287.912z"/>
<g>
</g>
<g>
</g>
<g>
</g>
<g>
</g>
<g>
</g>
<g>
</g>
<g>
</g>
<g>
</g>
<g>
</g>
<g>
</g>
<g>
</g>
<g>
</g>
<g>
</g>
<g>
</g>
<g>
</g>
</svg>
