<?xml version="1.0" encoding="iso-8859-1"?>
<!-- Generator: Adobe Illustrator 19.0.0, SVG Export Plug-In . SVG Version: 6.00 Build 0)  -->
<svg version="1.1" id="Layer_1" xmlns="http://www.w3.org/2000/svg" xmlns:xlink="http://www.w3.org/1999/xlink" x="0px" y="0px"
	 viewBox="0 0 511.984 511.984" style="enable-background:new 0 0 511.984 511.984;" xml:space="preserve">
<path style="fill:#F6BB42;" d="M238.948,405.661h139.56c63.64-36.875,115.341-122.857,25.593-218.34
	c-72.998-77.701-45.904-166.168-45.904-166.168c-111.249,31.78-160.795,100.31-160.795,196.793
	c-11.094-7.609-26.71-20.421-35.039-30.828C115.794,294.382,170.746,371.786,238.948,405.661z"/>
<path style="fill:#FFCE54;" d="M330.321,417.41h-68.842c-31.391-18.187-56.898-60.608-12.625-107.7
	c36.015-38.344,22.649-81.999,22.649-81.999c54.881,15.688,79.318,49.499,79.318,97.092c5.469-3.75,13.188-10.062,17.296-15.202
	C391.085,362.52,363.977,400.708,330.321,417.41z"/>
<path style="fill:#8CC153;" d="M75.537,346.068c-0.711,0-1.43-0.078-2.156-0.219c-2.234-0.453-54.874-11.844-72.819-65.046
	c-1.882-5.578,1.117-11.625,6.703-13.5c5.578-1.891,11.633,1.109,13.516,6.688c14.07,41.718,56.467,50.874,56.889,50.968
	c5.773,1.188,9.492,6.812,8.305,12.594C84.935,342.584,80.498,346.068,75.537,346.068z"/>
<path style="fill:#ED5564;" d="M510.942,311.913c-287.908,150.355-340.212-1.25-399.765-11.953
	c-64.101-11.547-87.256,66.592-52.124,96.186C318.337,614.609,528.645,398.333,510.942,311.913z"/>
<path style="opacity:0.1;enable-background:new    ;" d="M59.053,374.817c-8.422-7.094-13.484-16.984-15.445-27.734
	c-3.172,18.25,1.617,37.422,15.445,49.062c258.659,217.933,468.577,3.219,452.014-83.608
	C496.036,407.661,298.415,576.485,59.053,374.817z"/>
<path style="fill:#A0D468;" d="M39.749,316.959c-9.773,9.781,3.352,33.655,3.352,33.655l27.194-44.217
	C70.295,306.397,49.53,307.179,39.749,316.959z"/>
<g>
</g>
<g>
</g>
<g>
</g>
<g>
</g>
<g>
</g>
<g>
</g>
<g>
</g>
<g>
</g>
<g>
</g>
<g>
</g>
<g>
</g>
<g>
</g>
<g>
</g>
<g>
</g>
<g>
</g>
</svg>
