<?xml version="1.0" encoding="iso-8859-1"?>
<!-- Generator: Adobe Illustrator 19.0.0, SVG Export Plug-In . SVG Version: 6.00 Build 0)  -->
<svg version="1.1" id="Layer_1" xmlns="http://www.w3.org/2000/svg" xmlns:xlink="http://www.w3.org/1999/xlink" x="0px" y="0px"
	 viewBox="0 0 511.989 511.989" style="enable-background:new 0 0 511.989 511.989;" xml:space="preserve">
<path style="fill:#8CC153;" d="M191.806,53.851C145.51,58.71,57.684,121.396,58.793,131.966
	c1.109,10.578,100.061,53.647,146.341,48.78c46.28-4.859,80.826-37.21,77.138-72.248C278.585,73.452,238.086,48.992,191.806,53.851z
	"/>
<path style="fill:#A0D468;" d="M325.209,10.664C325.209,4.773,320.428,0,314.537,0c-1.5,0-2.922,0.305-4.203,0.859
	c-1.703,0.734-14.124,6.516-26.062,24.539c-15.358,23.179-23.124,55.569-23.062,96.279l21.327-0.031
	c-0.031-24.304,3.141-58.397,18.452-82.811c8.844-14.124,17.766-18.374,17.859-18.413l-0.094,0.039
	C322.553,18.821,325.209,15.055,325.209,10.664z"/>
<path style="fill:#AC92EB;" d="M325.209,458.647c0-29.438-23.875-53.326-53.326-53.326c-29.468,0-53.343,23.889-53.343,53.326
	c0,29.469,23.875,53.342,53.343,53.342C301.334,511.989,325.209,488.116,325.209,458.647z"/>
<path style="opacity:0.2;fill:#FFFFFF;enable-background:new    ;" d="M261.211,437.319c0,5.891-4.781,10.672-10.671,10.672
	c-5.89,0-10.656-4.781-10.656-10.672s4.766-10.672,10.656-10.672C256.43,426.647,261.211,431.429,261.211,437.319z"/>
<path style="fill:#9782D8;" d="M367.88,383.993c0-29.469-23.89-53.344-53.343-53.344c-29.452,0-53.326,23.875-53.326,53.344
	c0,29.451,23.874,53.326,53.326,53.326C343.99,437.319,367.88,413.444,367.88,383.993z"/>
<path style="opacity:0.2;fill:#FFFFFF;enable-background:new    ;" d="M303.881,362.649c0,5.906-4.781,10.672-10.671,10.672
	c-5.891,0-10.672-4.766-10.672-10.672c0-5.875,4.781-10.656,10.672-10.656C299.099,351.993,303.881,356.774,303.881,362.649z"/>
<path style="fill:#9782D8;" d="M282.538,383.993c0-29.469-23.874-53.344-53.327-53.344c-29.452,0-53.327,23.875-53.327,53.344
	c0,29.451,23.875,53.326,53.327,53.326C258.664,437.319,282.538,413.444,282.538,383.993z"/>
<path style="opacity:0.2;fill:#FFFFFF;enable-background:new    ;" d="M218.54,362.649c0,5.906-4.766,10.672-10.656,10.672
	s-10.671-4.766-10.671-10.672c0-5.875,4.781-10.656,10.671-10.656C213.774,351.993,218.54,356.774,218.54,362.649z"/>
<path style="fill:#9782D8;" d="M197.212,234.66c0-29.452-23.875-53.335-53.327-53.335c-29.468,0-53.342,23.883-53.342,53.335
	c0,29.453,23.874,53.335,53.342,53.335C173.338,287.995,197.212,264.112,197.212,234.66z"/>
<path style="opacity:0.2;fill:#FFFFFF;enable-background:new    ;" d="M133.214,213.324c0,5.891-4.781,10.664-10.672,10.664
	s-10.656-4.773-10.656-10.664c0-5.89,4.765-10.664,10.656-10.664C128.433,202.66,133.214,207.434,133.214,213.324z"/>
<path style="fill:#9782D8;" d="M453.207,234.66c0-29.452-23.875-53.335-53.328-53.335c-29.468,0-53.342,23.883-53.342,53.335
	c0,29.453,23.874,53.335,53.342,53.335C429.332,287.995,453.207,264.112,453.207,234.66z"/>
<path style="opacity:0.2;fill:#FFFFFF;enable-background:new    ;" d="M389.207,213.324c0,5.891-4.78,10.664-10.671,10.664
	s-10.656-4.773-10.656-10.664c0-5.89,4.766-10.664,10.656-10.664S389.207,207.434,389.207,213.324z"/>
<path style="fill:#AC92EB;" d="M410.535,309.323c0-29.453-23.874-53.336-53.326-53.336c-29.453,0-53.344,23.883-53.344,53.336
	c0,29.451,23.891,53.326,53.344,53.326C386.661,362.649,410.535,338.774,410.535,309.323z"/>
<path style="opacity:0.2;fill:#FFFFFF;enable-background:new    ;" d="M346.537,287.995c0,5.875-4.766,10.656-10.672,10.656
	c-5.875,0-10.656-4.781-10.656-10.656c0-5.906,4.781-10.672,10.656-10.672C341.771,277.323,346.537,282.089,346.537,287.995z"/>
<path style="fill:#AC92EB;" d="M239.883,309.323c0-29.453-23.89-53.336-53.343-53.336c-29.452,0-53.327,23.883-53.327,53.336
	c0,29.451,23.875,53.326,53.327,53.326C215.993,362.649,239.883,338.774,239.883,309.323z"/>
<path style="opacity:0.2;fill:#FFFFFF;enable-background:new    ;" d="M175.885,287.995c0,5.875-4.781,10.656-10.672,10.656
	c-5.89,0-10.671-4.781-10.671-10.656c0-5.906,4.781-10.672,10.671-10.672S175.885,282.089,175.885,287.995z"/>
<path style="fill:#9782D8;" d="M325.209,309.323c0-29.453-23.875-53.336-53.326-53.336c-29.468,0-53.343,23.883-53.343,53.336
	c0,29.451,23.875,53.326,53.343,53.326C301.334,362.649,325.209,338.774,325.209,309.323z"/>
<path style="opacity:0.2;fill:#FFFFFF;enable-background:new    ;" d="M261.211,287.995c0,5.875-4.781,10.656-10.671,10.656
	c-5.89,0-10.656-4.781-10.656-10.656c0-5.906,4.766-10.672,10.656-10.672C256.43,277.323,261.211,282.089,261.211,287.995z"/>
<path style="fill:#AC92EB;" d="M282.538,234.66c0-29.452-23.874-53.335-53.327-53.335c-29.452,0-53.327,23.883-53.327,53.335
	c0,29.453,23.875,53.335,53.327,53.335C258.664,287.995,282.538,264.112,282.538,234.66z"/>
<path style="opacity:0.2;fill:#FFFFFF;enable-background:new    ;" d="M218.54,213.324c0,5.891-4.766,10.664-10.656,10.664
	s-10.671-4.773-10.671-10.664c0-5.89,4.781-10.664,10.671-10.664C213.774,202.661,218.54,207.434,218.54,213.324z"/>
<path style="fill:#AC92EB;" d="M367.88,234.66c0-29.452-23.89-53.335-53.343-53.335c-29.452,0-53.326,23.883-53.326,53.335
	c0,29.453,23.874,53.335,53.326,53.335C343.99,287.995,367.88,264.112,367.88,234.66z"/>
<path style="opacity:0.2;fill:#FFFFFF;enable-background:new    ;" d="M303.881,213.324c0,5.891-4.781,10.664-10.671,10.664
	c-5.891,0-10.672-4.773-10.672-10.664c0-5.89,4.781-10.664,10.672-10.664C299.099,202.661,303.881,207.434,303.881,213.324z"/>
<path style="fill:#AC92EB;" d="M239.868,159.99c0-29.453-23.875-53.327-53.327-53.327s-53.327,23.874-53.327,53.327
	c0,29.46,23.875,53.334,53.327,53.334S239.868,189.45,239.868,159.99z"/>
<path style="opacity:0.2;fill:#FFFFFF;enable-background:new    ;" d="M175.885,138.662c0,5.891-4.781,10.664-10.672,10.664
	c-5.89,0-10.671-4.773-10.671-10.664s4.781-10.671,10.671-10.671C171.103,127.99,175.885,132.771,175.885,138.662z"/>
<path style="fill:#AC92EB;" d="M410.535,159.99c0-29.453-23.874-53.327-53.326-53.327c-29.453,0-53.344,23.874-53.344,53.327
	c0,29.46,23.891,53.334,53.344,53.334C386.661,213.324,410.535,189.45,410.535,159.99z"/>
<path style="opacity:0.2;fill:#FFFFFF;enable-background:new    ;" d="M346.537,138.662c0,5.891-4.766,10.664-10.672,10.664
	c-5.875,0-10.656-4.773-10.656-10.664s4.781-10.671,10.656-10.671C341.771,127.99,346.537,132.771,346.537,138.662z"/>
<path style="fill:#9782D8;" d="M325.209,159.99c0-29.453-23.875-53.327-53.342-53.327c-29.453,0-53.327,23.874-53.327,53.327
	c0,29.46,23.875,53.334,53.327,53.334C301.334,213.324,325.209,189.45,325.209,159.99z"/>
<path style="opacity:0.2;fill:#FFFFFF;enable-background:new    ;" d="M261.211,138.662c0,5.891-4.781,10.664-10.671,10.664
	c-5.89,0-10.672-4.773-10.672-10.664s4.781-10.671,10.672-10.671S261.211,132.771,261.211,138.662z"/>
<g>
</g>
<g>
</g>
<g>
</g>
<g>
</g>
<g>
</g>
<g>
</g>
<g>
</g>
<g>
</g>
<g>
</g>
<g>
</g>
<g>
</g>
<g>
</g>
<g>
</g>
<g>
</g>
<g>
</g>
</svg>
