<?xml version="1.0" encoding="iso-8859-1"?>
<!-- Generator: Adobe Illustrator 19.0.0, SVG Export Plug-In . SVG Version: 6.00 Build 0)  -->
<svg version="1.1" id="Layer_1" xmlns="http://www.w3.org/2000/svg" xmlns:xlink="http://www.w3.org/1999/xlink" x="0px" y="0px"
	 viewBox="0 0 367.939 367.939" style="enable-background:new 0 0 367.939 367.939;" xml:space="preserve">
<g id="XMLID_1294_">
	<g id="XMLID_1295_">
		<path id="XMLID_588_" style="fill:#FFE165;stroke:#FFA250;stroke-width:20;stroke-miterlimit:10;" d="M12.351,148.76
			l53.288-30.766c1.455-0.84,3.247-0.84,4.702,0l53.288,30.766c1.455,0.84,2.351,2.392,2.351,4.072v61.531
			c0,1.68-0.896,3.232-2.351,4.072l-53.288,30.766c-1.455,0.84-3.247,0.84-4.702,0l-53.288-30.766
			c-1.455-0.84-2.351-2.392-2.351-4.072v-61.531C10,151.152,10.896,149.6,12.351,148.76z"/>
		<path id="XMLID_587_" style="fill:#FFE165;stroke:#FFA250;stroke-width:20;stroke-miterlimit:10;" d="M128.331,148.76
			l53.288-30.766c1.455-0.84,3.247-0.84,4.702,0l53.288,30.766c1.455,0.84,2.351,2.392,2.351,4.072v61.531
			c0,1.68-0.896,3.232-2.351,4.072l-53.289,30.766c-1.455,0.84-3.247,0.84-4.702,0l-53.288-30.766
			c-1.455-0.84-2.351-2.392-2.351-4.072v-61.531C125.98,151.152,126.876,149.6,128.331,148.76z"/>
		<path id="XMLID_586_" style="fill:#FFE165;stroke:#FFA250;stroke-width:20;stroke-miterlimit:10;" d="M244.31,148.76
			l53.288-30.766c1.455-0.84,3.247-0.84,4.702,0l53.288,30.766c1.455,0.84,2.351,2.392,2.351,4.072v61.531
			c0,1.68-0.896,3.232-2.351,4.072L302.3,249.201c-1.455,0.84-3.247,0.84-4.702,0l-53.288-30.766
			c-1.455-0.84-2.351-2.392-2.351-4.072v-61.531C241.959,151.152,242.855,149.6,244.31,148.76z"/>
	</g>
	<g id="XMLID_1296_">
		<path id="XMLID_584_" style="fill:#FFE165;stroke:#FFA250;stroke-width:20;stroke-miterlimit:10;" d="M70.341,48.76l53.288-30.766
			c1.455-0.84,3.247-0.84,4.702,0l53.288,30.766c1.455,0.84,2.351,2.392,2.351,4.072v61.531c0,1.68-0.896,3.232-2.351,4.072
			l-53.288,30.766c-1.455,0.84-3.247,0.84-4.702,0l-53.288-30.766c-1.455-0.84-2.351-2.392-2.351-4.072V52.832
			C67.99,51.152,68.886,49.6,70.341,48.76z"/>
		<path id="XMLID_583_" style="fill:#FFE165;stroke:#FFA250;stroke-width:20;stroke-miterlimit:10;" d="M186.32,48.76l53.288-30.766
			c1.455-0.84,3.247-0.84,4.702,0l53.288,30.766c1.455,0.84,2.351,2.392,2.351,4.072v61.531c0,1.68-0.896,3.232-2.351,4.072
			l-53.288,30.766c-1.455,0.84-3.247,0.84-4.702,0l-53.288-30.766c-1.455-0.84-2.351-2.392-2.351-4.072V52.832
			C183.969,51.152,184.866,49.6,186.32,48.76z"/>
	</g>
	<g id="XMLID_1297_">
		<path id="XMLID_581_" style="fill:#FFE165;stroke:#FFA250;stroke-width:20;stroke-miterlimit:10;" d="M70.341,249.505
			l53.288-30.766c1.455-0.84,3.247-0.84,4.702,0l53.288,30.766c1.455,0.84,2.351,2.392,2.351,4.072v61.531
			c0,1.68-0.896,3.232-2.351,4.072l-53.288,30.766c-1.455,0.84-3.247,0.84-4.702,0l-53.288-30.765
			c-1.455-0.84-2.351-2.392-2.351-4.072v-61.531C67.99,251.896,68.886,250.344,70.341,249.505z"/>
		<path id="XMLID_580_" style="fill:#FFE165;stroke:#FFA250;stroke-width:20;stroke-miterlimit:10;" d="M186.32,249.505
			l53.288-30.766c1.455-0.84,3.247-0.84,4.702,0l53.288,30.766c1.455,0.84,2.351,2.392,2.351,4.072v61.531
			c0,1.68-0.896,3.232-2.351,4.072l-53.288,30.766c-1.455,0.84-3.247,0.84-4.702,0l-53.288-30.765
			c-1.455-0.84-2.351-2.392-2.351-4.072v-61.531C183.969,251.896,184.866,250.344,186.32,249.505z"/>
	</g>
</g>
<g>
</g>
<g>
</g>
<g>
</g>
<g>
</g>
<g>
</g>
<g>
</g>
<g>
</g>
<g>
</g>
<g>
</g>
<g>
</g>
<g>
</g>
<g>
</g>
<g>
</g>
<g>
</g>
<g>
</g>
</svg>
