<?xml version="1.0" encoding="iso-8859-1"?>
<!-- Generator: Adobe Illustrator 19.0.0, SVG Export Plug-In . SVG Version: 6.00 Build 0)  -->
<svg version="1.1" id="Layer_1" xmlns="http://www.w3.org/2000/svg" xmlns:xlink="http://www.w3.org/1999/xlink" x="0px" y="0px"
	 viewBox="0 0 501.29 501.29" style="enable-background:new 0 0 501.29 501.29;" xml:space="preserve">
<g>
	<path style="fill:#FFD15C;" d="M276.637,142.89c-9.404-9.404-25.078-9.404-34.482,0l-99.265,99.265
		c-9.404,9.404-9.404,25.078,0,34.482s25.078,9.404,34.482,0l99.265-99.265C286.041,167.967,286.041,152.294,276.637,142.89z"/>
	<path style="fill:#FFD15C;" d="M140.8,7.053c-9.404-9.404-25.078-9.404-34.482,0L7.053,106.318c-9.404,9.404-9.404,25.078,0,34.482
		s25.078,9.404,34.482,0L140.8,40.49C150.204,31.086,150.204,16.457,140.8,7.053z"/>
</g>
<path style="fill:#F8B64C;" d="M266.188,85.42L266.188,85.42c-9.404-9.404-25.078-9.404-34.482,0L85.42,232.751
	c-9.404,9.404-9.404,25.078,0,34.482c9.404,9.404,25.078,9.404,34.482,0l146.286-148.376
	C275.592,109.453,275.592,94.825,266.188,85.42z"/>
<path style="fill:#FFD15C;" d="M249.469,34.22c-9.404-9.404-25.078-9.404-34.482,0L34.22,216.033
	c-9.404,9.404-9.404,25.078,0,34.482s25.078,9.404,34.482,0L249.469,67.657C258.873,58.253,258.873,43.625,249.469,34.22z"/>
<g>
	<path style="fill:#F8B64C;" d="M198.269,16.457c-9.404-9.404-25.078-9.404-34.482,0L16.457,164.833
		c-9.404,9.404-9.404,25.078,0,34.482s25.078,9.404,34.482,0L198.269,50.939C207.673,41.535,207.673,25.861,198.269,16.457z"/>

		<rect x="224.649" y="219.328" transform="matrix(-0.7071 0.7071 -0.7071 -0.7071 595.6258 247.3189)" style="fill:#F8B64C;" width="43.885" height="55.379"/>
</g>
<path style="fill:#E2E2E2;" d="M291.265,242.155l-49.11,49.11c0,0,135.837,210.024,210.025,210.024
	c17.763,0,49.11-31.347,49.11-49.11C501.29,377.992,291.265,242.155,291.265,242.155z"/>
<g>
	<path style="fill:#40596B;" d="M326.792,266.188c-20.898-14.629-35.527-24.033-35.527-24.033l-49.11,49.11
		c0,0,9.404,14.629,24.033,35.527L326.792,266.188z"/>
	<path style="fill:#40596B;" d="M412.473,486.661c13.584,8.359,27.167,14.629,38.661,14.629c17.763,0,49.11-31.347,49.11-49.11
		c0-11.494-5.224-25.078-14.629-38.661L412.473,486.661z"/>
</g>
<path style="fill:#FFD15C;" d="M116.767,386.351c0,24.033-19.853,42.841-42.841,42.841s-42.841-19.853-42.841-42.841
	c0-24.033,42.841-86.727,42.841-86.727S116.767,362.318,116.767,386.351z"/>
<ellipse transform="matrix(-0.7109 -0.7033 0.7033 -0.7109 -185.3751 729.0931)" style="fill:#FFFFFF;" cx="57.166" cy="402.648" rx="14.629" ry="7.314"/>
<path style="fill:#FFD15C;" d="M203.494,458.449c0,24.033-19.853,42.841-42.841,42.841s-42.841-19.853-42.841-42.841
	c0-24.033,42.841-86.727,42.841-86.727S203.494,434.416,203.494,458.449z"/>
<ellipse transform="matrix(-0.7109 -0.7033 0.7033 -0.7109 -89.6169 912.1103)" style="fill:#FFFFFF;" cx="142.662" cy="474.474" rx="14.629" ry="7.314"/>
<g>
</g>
<g>
</g>
<g>
</g>
<g>
</g>
<g>
</g>
<g>
</g>
<g>
</g>
<g>
</g>
<g>
</g>
<g>
</g>
<g>
</g>
<g>
</g>
<g>
</g>
<g>
</g>
<g>
</g>
</svg>
