<?xml version="1.0" encoding="iso-8859-1"?>
<!-- Generator: Adobe Illustrator 19.0.0, SVG Export Plug-In . SVG Version: 6.00 Build 0)  -->
<svg version="1.1" id="Layer_1" xmlns="http://www.w3.org/2000/svg" xmlns:xlink="http://www.w3.org/1999/xlink" x="0px" y="0px"
	 viewBox="0 0 511.988 511.988" style="enable-background:new 0 0 511.988 511.988;" xml:space="preserve">
<path style="fill:#8CC153;" d="M170.652,405.335c-42.733,0-82.904-16.656-113.123-46.875
	c-30.218-30.218-46.874-70.389-46.874-113.138c0-42.733,16.656-82.904,46.874-113.123c30.219-30.233,70.39-46.874,113.123-46.874
	c42.749,0,82.92,16.641,113.138,46.874c30.218,30.219,46.858,70.39,46.858,113.123c0,42.749-16.641,82.92-46.858,113.138
	C253.572,388.679,213.401,405.335,170.652,405.335z"/>
<path style="fill:#434A54;" d="M213.323,42.67c0-5.89-4.781-10.671-10.672-10.671c-1.156,0-2.266,0.188-3.297,0.531l0,0
	c-1.047,0.328-10.375,3.516-19.733,11.233c-13.203,10.875-19.984,25.328-19.625,41.796l21.328-0.453
	c-0.516-23.515,23.671-31.968,24.702-32.327l0,0C210.261,51.373,213.323,47.373,213.323,42.67z"/>
<path style="fill:#76A336;" d="M170.652,74.67C76.404,74.67,0,151.074,0,245.322C0,339.586,76.404,415.99,170.652,415.99
	c94.264,0,170.668-76.404,170.668-170.668C341.32,151.074,264.916,74.67,170.652,74.67z M199.276,391.929
	c-0.656,0.125-1.312,0.25-1.969,0.375c9.469-28.359,26.688-87.92,26.688-146.981c0-59.046-17.219-118.622-26.688-146.966
	c0.656,0.125,1.312,0.25,1.969,0.375c14.391,13.844,67.374,70.077,67.374,146.591c0,45.624-19.109,83.795-35.156,107.763
	C218.526,372.475,205.401,386.022,199.276,391.929z M142.027,391.929c-6.124-5.906-19.249-19.453-32.202-38.844
	c-16.047-23.968-35.171-62.139-35.171-107.763c0-45.608,19.124-83.779,35.171-107.764c12.953-19.374,26.078-32.921,32.202-38.827
	c0.672-0.125,1.328-0.25,1.984-0.375c-9.483,28.344-26.687,87.92-26.687,146.966c0,59.062,17.203,118.622,26.687,146.981
	C143.355,392.179,142.699,392.054,142.027,391.929z M33.061,303.446c-7.781-18.391-11.734-37.953-11.734-58.124
	c0-20.172,3.953-39.718,11.734-58.108c7.516-17.78,18.28-33.765,31.999-47.483c10.672-10.672,22.719-19.546,35.905-26.499
	c-2.797,3.688-5.641,7.656-8.484,11.891c-25.608,38.077-39.155,79.639-39.155,120.2s13.547,82.139,39.155,120.2
	c2.844,4.25,5.688,8.203,8.484,11.906c-13.187-6.953-25.233-15.844-35.905-26.516C51.342,337.195,40.577,321.226,33.061,303.446z
	 M167.418,394.616c-7.422-20.891-28.766-86.467-28.766-149.294c0-62.812,21.344-128.403,28.766-149.278
	c1.078-0.031,2.156-0.047,3.234-0.047c1.094,0,2.172,0.016,3.25,0.047c7.422,20.859,28.749,86.373,28.749,149.278
	c0,62.827-21.343,128.419-28.749,149.294c-1.078,0.031-2.156,0.047-3.25,0.047C169.574,394.663,168.496,394.647,167.418,394.616z
	 M276.243,350.913c-10.671,10.672-22.702,19.562-35.89,26.516c2.797-3.703,5.641-7.656,8.484-11.906
	c25.609-38.062,39.155-79.639,39.155-120.2s-13.546-82.123-39.155-120.2c-2.844-4.234-5.688-8.203-8.484-11.891
	c13.188,6.953,25.219,15.827,35.89,26.499c13.734,13.719,24.499,29.703,32.015,47.483c7.781,18.391,11.734,37.937,11.734,58.108
	c0,20.171-3.953,39.733-11.734,58.124C300.742,321.226,289.977,337.195,276.243,350.913z"/>
<path style="fill:#A0D468;" d="M170.652,309.321c0,94.264,76.42,170.668,170.668,170.668c94.264,0,170.668-76.404,170.668-170.668
	H170.652z"/>
<path style="fill:#E6E9ED;" d="M341.32,458.661c82.467,0,149.324-66.857,149.324-149.34H191.995
	C191.995,391.804,258.853,458.661,341.32,458.661z"/>
<path style="fill:#ED5564;" d="M341.32,447.989c76.576,0,138.669-62.076,138.669-138.668H202.651
	C202.651,385.913,264.744,447.989,341.32,447.989z"/>
<g>
	<path style="fill:#434A54;" d="M255.994,341.32c-5.891,0-10.672,4.781-10.672,10.671c0,5.891,4.781,10.672,10.672,10.672
		c5.891,0,10.656-4.781,10.656-10.672C266.65,346.101,261.885,341.32,255.994,341.32z"/>
	<path style="fill:#434A54;" d="M309.32,341.32c-5.891,0-10.672,4.781-10.672,10.671c0,5.891,4.781,10.672,10.672,10.672
		s10.672-4.781,10.672-10.672C319.992,346.101,315.211,341.32,309.32,341.32z"/>
	<path style="fill:#434A54;" d="M362.648,341.32c-5.891,0-10.656,4.781-10.656,10.671c0,5.891,4.766,10.672,10.656,10.672
		s10.671-4.781,10.671-10.672C373.319,346.101,368.538,341.32,362.648,341.32z"/>
	<path style="fill:#434A54;" d="M415.99,341.32c-5.891,0-10.672,4.781-10.672,10.671c0,5.891,4.781,10.672,10.672,10.672
		s10.656-4.781,10.656-10.672C426.646,346.101,421.881,341.32,415.99,341.32z"/>
	<path style="fill:#434A54;" d="M282.727,381.991c-5.891,0-10.655,4.781-10.655,10.672s4.765,10.672,10.655,10.672
		s10.672-4.781,10.672-10.672S288.618,381.991,282.727,381.991z"/>
	<path style="fill:#434A54;" d="M336.07,381.991c-5.891,0-10.672,4.781-10.672,10.672s4.781,10.672,10.672,10.672
		s10.656-4.781,10.656-10.672S341.961,381.991,336.07,381.991z"/>
	<path style="fill:#434A54;" d="M389.396,381.991c-5.89,0-10.671,4.781-10.671,10.672s4.781,10.672,10.671,10.672
		c5.891,0,10.672-4.781,10.672-10.672S395.287,381.991,389.396,381.991z"/>
</g>
<g>
</g>
<g>
</g>
<g>
</g>
<g>
</g>
<g>
</g>
<g>
</g>
<g>
</g>
<g>
</g>
<g>
</g>
<g>
</g>
<g>
</g>
<g>
</g>
<g>
</g>
<g>
</g>
<g>
</g>
</svg>
