<?xml version="1.0" encoding="iso-8859-1"?>
<!-- Generator: Adobe Illustrator 19.0.0, SVG Export Plug-In . SVG Version: 6.00 Build 0)  -->
<svg version="1.1" id="Layer_1" xmlns="http://www.w3.org/2000/svg" xmlns:xlink="http://www.w3.org/1999/xlink" x="0px" y="0px"
	 viewBox="0 0 512.001 512.001" style="enable-background:new 0 0 512.001 512.001;" xml:space="preserve">
<circle style="fill:#FF8E34;" cx="213.152" cy="246.959" r="213.152"/>
<g style="opacity:0.2;">
	<circle cx="73.091" cy="194.451" r="8.326"/>
	<circle cx="107.492" cy="237.845" r="8.326"/>
	<circle cx="73.091" cy="288.222" r="8.326"/>
	<circle cx="157.225" cy="194.451" r="8.326"/>
	<circle cx="124.144" cy="152.389" r="8.326"/>
</g>
<circle style="opacity:0.3;fill:#FFFFFF;enable-background:new    ;" cx="229.427" cy="91.499" r="22.572"/>
<path style="fill:#006539;" d="M246.123,234.72c46.836,0,86.643,33.605,101.144,47.548c3.389,3.259,3.389,8.647,0,11.905
	c-14.501,13.943-54.309,47.548-101.144,47.548s-86.643-33.605-101.144-47.548c-3.389-3.259-3.389-8.647,0-11.905
	C159.479,268.324,199.286,234.72,246.123,234.72z"/>
<path style="opacity:0.1;enable-background:new    ;" d="M347.266,282.268c-12.085-11.62-41.749-36.877-78.404-44.978
	c3.969,34.023,17.539,63.627,24.948,77.729c2.633,5.013,8.865,6.818,13.771,3.991c9.661-5.569,25.939-15.958,42.225-30.818
	C349.799,286.039,348.954,283.89,347.266,282.268z"/>
<path style="opacity:0.15;enable-background:new    ;" d="M269.109,296.547h-45.973c-4.599,0-8.326-3.728-8.326-8.326
	s3.727-8.326,8.326-8.326h45.973c4.599,0,8.326,3.728,8.326,8.326S273.708,296.547,269.109,296.547z"/>
<path style="fill:#00A155;" d="M407.626,195.726c-15.699,54.179-67.917,88.963-88.907,101.063
	c-4.906,2.829-11.138,1.022-13.772-3.991c-11.269-21.448-36.799-78.761-21.1-132.94c15.699-54.179,67.917-88.962,88.907-101.063
	c4.906-2.829,11.138-1.022,13.771,3.991C397.795,84.235,423.325,141.547,407.626,195.726z"/>
<path style="opacity:0.15;enable-background:new    ;" d="M338.037,212.711c-0.767,0-1.549-0.107-2.322-0.331
	c-4.416-1.28-6.959-5.898-5.679-10.314l15.411-53.181c1.279-4.417,5.898-6.959,10.315-5.679c4.416,1.28,6.959,5.898,5.679,10.314
	l-15.411,53.181C344.974,210.343,341.648,212.711,338.037,212.711z"/>
<path style="opacity:0.1;enable-background:new    ;" d="M412.153,170.493c0.699-8.889,0.514-17.696-0.296-26.257
	c-6.34-2.397-13.871-1.107-19.076,4.1l-266.53,266.53C61.507,378.286,17.792,308.838,17.792,229.171
	c0-54.332,20.339-103.906,53.806-141.551C27.678,126.663,0,183.576,0,246.962C0,364.681,95.43,460.11,213.148,460.11
	s213.148-95.43,213.148-213.148C426.297,220.01,421.282,194.232,412.153,170.493z"/>
<path style="fill:#FF8E34;" d="M171.042,410.04c-7.726,7.726-6.863,20.586,1.948,27.05c83.39,61.17,201.198,54.07,276.588-21.32
	c75.389-75.389,82.49-193.197,21.32-276.588c-6.463-8.811-19.323-9.675-27.05-1.948L171.042,410.04z"/>
<g style="opacity:0.3;">
	<path style="fill:#FFFFFF;" d="M183.781,404.95c28.266,23.307,61.938,36.742,96.438,40.292c2.905,0.299,5.431-1.992,5.431-4.911
		V304.597c0-3.383-4.09-5.077-6.482-2.684L183.43,397.65C181.372,399.708,181.535,403.098,183.781,404.95z"/>
	<path style="fill:#FFFFFF;" d="M316.59,445.327c34.614-3.385,68.436-16.708,96.847-39.966c2.258-1.848,2.427-5.247,0.363-7.311
		l-96.137-96.137c-2.392-2.392-6.482-0.698-6.482,2.684v135.815C311.183,443.324,313.693,445.611,316.59,445.327z"/>
	<path style="fill:#FFFFFF;" d="M439.167,379.632c23.258-28.411,36.582-62.234,39.967-96.848c0.283-2.897-2.003-5.407-4.913-5.407
		H338.403c-3.383,0-5.077,4.09-2.684,6.482l96.138,96.138C433.919,382.06,437.318,381.89,439.167,379.632z"/>
	<path style="fill:#FFFFFF;" d="M338.404,251.844h135.733c2.921,0,5.21-2.525,4.911-5.431c-3.549-34.5-16.985-68.172-40.292-96.438
		c-1.852-2.246-5.242-2.409-7.3-0.351l-95.737,95.737C333.326,247.754,335.021,251.844,338.404,251.844z"/>
</g>
<g>
</g>
<g>
</g>
<g>
</g>
<g>
</g>
<g>
</g>
<g>
</g>
<g>
</g>
<g>
</g>
<g>
</g>
<g>
</g>
<g>
</g>
<g>
</g>
<g>
</g>
<g>
</g>
<g>
</g>
</svg>
