<?xml version="1.0" encoding="iso-8859-1"?>
<!-- Generator: Adobe Illustrator 19.0.0, SVG Export Plug-In . SVG Version: 6.00 Build 0)  -->
<svg version="1.1" id="Layer_1" xmlns="http://www.w3.org/2000/svg" xmlns:xlink="http://www.w3.org/1999/xlink" x="0px" y="0px"
	 viewBox="0 0 511.993 511.993" style="enable-background:new 0 0 511.993 511.993;" xml:space="preserve">
<path style="fill:#A0D468;" d="M122.106,30.88c-30.765-5.773-99.42,17.702-100.748,24.734c-1.312,7.023,54.139,53.819,84.904,59.593
	c30.765,5.781,59.233-8.414,63.608-31.703C174.245,60.223,152.855,36.661,122.106,30.88z"/>
<path style="fill:#434A54;" d="M213.354,44.817c0-5.891-4.766-10.664-10.671-10.664c-1.203,0-2.359,0.211-3.438,0.578l-0.016-0.008
	c-0.516,0.188-13.094,4.554-26.14,14.953C155.418,63.77,144.98,82.34,142.918,103.37l21.234,2.086
	c1.484-15.172,8.797-28.187,21.718-38.679c10.203-8.281,20.203-11.844,20.312-11.875v-0.008
	C210.354,53.45,213.354,49.489,213.354,44.817z"/>
<path style="fill:#DB4C3A;" d="M266.088,247.696c0,82.06-1.812,149.043-75.296,149.043C117.309,396.739,0,413.816,0,247.696
	C0,81.582,118.544,98.16,192.027,98.16C265.494,98.16,266.088,165.643,266.088,247.696z"/>
<path style="fill:#E9573F;" d="M320.039,247.5c0,113.567-57.873,149.348-129.247,149.348S61.545,366.52,61.545,247.5
	c0-119.005,57.874-149.341,129.247-149.341C262.166,98.16,320.039,133.94,320.039,247.5z"/>
<path style="fill:#FFCE54;" d="M362.68,471.347c-0.688-0.016-35.406-0.391-69.546-18.609c-19.702-10.5-35.437-24.905-46.796-42.749
	c-14.344-22.562-21.843-50.968-22.312-84.451c-0.641-46.077,12.25-85.935,35.359-109.38c14.281-14.476,31.405-21.812,50.936-21.812
	c14.875,0,30.844,4.336,47.469,12.891l4.891,2.507l4.874-2.507c16.641-8.555,32.577-12.891,47.374-12.891
	c19.203,0,36.094,7.188,50.218,21.367c23.187,23.304,36.374,63.373,36.187,109.935c-0.156,33.437-7.453,61.843-21.702,84.373
	c-11.297,17.844-27.046,32.218-46.843,42.718C398.443,470.956,363.351,471.331,362.68,471.347z"/>
<path style="fill:#FC6E51;" d="M414.928,183.673c-15.953,0-33.468,4.414-52.248,14.078c-18.781-9.656-36.344-14.078-52.359-14.078
	c-59.873-0.008-98.091,61.71-96.966,142.004c2.188,156.153,148.654,156.341,149.326,156.341l0,0l0,0
	c0.641,0,148.621-0.172,149.309-156.341C512.348,245.391,474.567,183.673,414.928,183.673z M470.849,403.927
	c-10.188,16.249-24.452,29.373-42.421,39.045c-31.594,17-64.279,17.688-65.748,17.703c-1.453-0.016-33.766-0.703-65.188-17.688
	c-40.889-22.124-62.029-61.686-62.811-117.591c-0.297-22.108,2.562-42.483,8.547-60.569c5.547-16.803,13.766-31.045,23.75-41.186
	c12.202-12.367,26.78-18.632,43.326-18.632c0,0,0,0,0.016,0c13.156,0,27.484,3.945,42.594,11.71l9.766,5.023l9.749-5.023
	c15.109-7.773,29.405-11.71,42.499-11.71c16.266,0,30.609,6.132,42.656,18.233c10.046,10.094,18.358,24.375,24.045,41.303
	c6.078,18.164,9.125,38.711,9.031,61.038C490.519,356.833,483.848,383.177,470.849,403.927z"/>
<g style="opacity:0.2;">
	<path style="fill:#FFFFFF;" d="M414.928,183.673c-7.031,0-14.375,0.859-21.984,2.648c47.547,12.586,76.687,68.795,76.374,139.356
		c-0.516,119.091-86.701,147.466-127.888,154.216c12.719,2.109,21.094,2.125,21.25,2.125l0,0l0,0
		c0.641,0,148.621-0.172,149.309-156.341C512.348,245.391,474.567,183.673,414.928,183.673z"/>
</g>
<path style="fill:#434A54;" d="M362.711,183.673c-5.906,0-10.672,4.773-10.672,10.672v42.937h21.327v-42.937
	C373.366,188.447,368.6,183.673,362.711,183.673z"/>
<path style="fill:#A85D5D;" d="M416.115,311.507c0,47.139-53.404,85.342-53.404,85.342s-53.422-38.203-53.422-85.342
	c0-47.133,53.422-85.342,53.422-85.342S416.115,264.374,416.115,311.507z"/>
<g>
	<path style="fill:#965353;" d="M373.71,279.507c0,5.891-4.781,10.672-10.671,10.672c-5.891,0-10.656-4.781-10.656-10.672
		s4.766-10.672,10.656-10.672S373.71,273.616,373.71,279.507z"/>
	<path style="fill:#965353;" d="M373.366,343.521c0,5.874-4.766,10.655-10.655,10.655c-5.906,0-10.672-4.781-10.672-10.655
		c0-5.906,4.766-10.688,10.672-10.688C368.6,332.834,373.366,337.615,373.366,343.521z"/>
	<path style="fill:#965353;" d="M357.367,311.507c0,5.89-4.781,10.671-10.672,10.671s-10.656-4.781-10.656-10.671
		c0-5.891,4.766-10.672,10.656-10.672S357.367,305.616,357.367,311.507z"/>
	<path style="fill:#965353;" d="M389.365,311.507c0,5.89-4.765,10.671-10.655,10.671c-5.906,0-10.672-4.781-10.672-10.671
		c0-5.891,4.766-10.672,10.672-10.672C384.6,300.835,389.365,305.616,389.365,311.507z"/>
</g>
<g>
</g>
<g>
</g>
<g>
</g>
<g>
</g>
<g>
</g>
<g>
</g>
<g>
</g>
<g>
</g>
<g>
</g>
<g>
</g>
<g>
</g>
<g>
</g>
<g>
</g>
<g>
</g>
<g>
</g>
</svg>
