<?xml version="1.0" encoding="iso-8859-1"?>
<!-- Generator: Adobe Illustrator 19.0.0, SVG Export Plug-In . SVG Version: 6.00 Build 0)  -->
<svg version="1.1" id="Layer_1" xmlns="http://www.w3.org/2000/svg" xmlns:xlink="http://www.w3.org/1999/xlink" x="0px" y="0px"
	 viewBox="0 0 511.999 511.999" style="enable-background:new 0 0 511.999 511.999;" xml:space="preserve">
<path style="fill:#9AD14B;" d="M357.529,61.398v4.06c0,11.748-9.514,21.262-21.262,21.262c-5.874,0-11.193-2.369-15.043-6.232
	c-3.863-3.838-6.232-9.156-6.232-15.03v-3.505c0-9.823-7.281-18.412-17.054-19.325c-11.205-1.049-20.658,7.774-20.658,18.77V168.31
	h-42.549V62.558c0-33.528,26.396-61.751,59.924-62.54C329.183-0.797,357.529,27.055,357.529,61.398z"/>
<path style="fill:#E54728;" d="M414.923,230.805c0.012-0.049-0.268,19.308-2.67,47.67c-6.248,73.732-23.93,208.663-70.273,224.704
	c-16.98,5.874-33.306,4.554-48.127-0.58l-0.099-0.185c14.919-8.219-11.053-162.328-4.019-181.085L414.923,230.805z"/>
<path style="fill:#F95428;" d="M277.28,152.432h83.346c40.451,0,68.451,40.353,54.347,78.225c-0.012,0.049-0.037,0.099-0.049,0.148
	l-86.703,231.158c-7.034,18.757-19.547,32.233-34.466,40.451c-9.214,5.072-19.346,8.132-29.666,9.18
	c-15.692,1.592-32.739-15.547-46.749-23.26c-14.919-8.219-26.516-7.614-33.549-26.371l-80.804-217.966
	c7.556,10.724,7.417-7.355,7.404-7.404c-14.105-37.872,82.269-84.161,82.269-84.161h42.072H277.28z"/>
<path style="fill:#E54728;" d="M253.312,503.179c-64.169-22.212-73.388-272.374-73.388-272.374l0.395-0.148
	c-14.105-37.872,13.907-78.225,54.347-78.225h-83.293c-40.439,0-68.451,40.353-54.347,78.225c0,0,0.128,14.363,1.796,36.316
	c5.326,70.143,22.324,219.289,71.197,236.206c16.98,5.874,33.306,4.554,48.127-0.58l0.111-0.185
	c20.442,11.253,45.394,12.596,66.918,4.039C274.979,507.754,264.283,506.975,253.312,503.179z"/>
<g>
</g>
<g>
</g>
<g>
</g>
<g>
</g>
<g>
</g>
<g>
</g>
<g>
</g>
<g>
</g>
<g>
</g>
<g>
</g>
<g>
</g>
<g>
</g>
<g>
</g>
<g>
</g>
<g>
</g>
</svg>
